<?xml version="1.0" standalone="no"?><!DOCTYPE svg PUBLIC "-//W3C//DTD SVG 1.1//EN" "http://www.w3.org/Graphics/SVG/1.1/DTD/svg11.dtd"><svg t="1615263143127" class="icon" viewBox="0 0 1024 1024" version="1.1" xmlns="http://www.w3.org/2000/svg" p-id="6125" xmlns:xlink="http://www.w3.org/1999/xlink" width="200" height="200"><defs><style type="text/css"></style></defs><path d="M876.174884 378.784744h-44.139163v-11.073488C832.035721 184.653395 688.461395 35.72093 512 35.72093S191.964279 184.653395 191.964279 367.711256v11.061581h-44.139163A88.504558 88.504558 0 0 0 59.534884 467.313116v420.530605A88.516465 88.516465 0 0 0 147.825116 976.372093h728.349768A88.516465 88.516465 0 0 0 964.465116 887.843721V467.313116a88.504558 88.504558 0 0 0-88.290232-88.528372z m-640.071442-11.061581C236.103442 209.062698 359.876465 79.99107 512 79.99107s275.896558 129.071628 275.896558 287.732093v11.061581H236.103442v-11.073488z m684.222511 520.120558a44.246326 44.246326 0 0 1-44.139162 44.270139H147.825116a44.246326 44.246326 0 0 1-44.139163-44.270139V467.313116a44.246326 44.246326 0 0 1 44.139163-44.270139h728.349768a44.246326 44.246326 0 0 1 44.139163 44.270139v420.530605z" fill="#3751F9" p-id="6126"></path><path d="M512 821.581395a142.883721 142.883721 0 1 1 142.883721-142.883721 143.038512 143.038512 0 0 1-142.883721 142.883721z m0-238.139535a95.255814 95.255814 0 1 0 95.255814 95.255814 95.362977 95.362977 0 0 0-95.255814-95.255814z" fill="#2c2c2c" p-id="6127" data-spm-anchor-id="a313x.7781069.0.i1" class="selected"></path></svg>