<?xml version="1.0" standalone="no"?><!DOCTYPE svg PUBLIC "-//W3C//DTD SVG 1.1//EN" "http://www.w3.org/Graphics/SVG/1.1/DTD/svg11.dtd"><svg t="1615263081171" class="icon" viewBox="0 0 1024 1024" version="1.1" xmlns="http://www.w3.org/2000/svg" p-id="2131" xmlns:xlink="http://www.w3.org/1999/xlink" width="200" height="200"><defs><style type="text/css"></style></defs><path d="M512 706.56c189.888 0 343.808-152.448 343.808-340.48C855.808 178.048 701.888 25.6 512 25.6 322.112 25.6 168.192 178.048 168.192 366.08c0 188.032 153.92 340.48 343.808 340.48z m0-97.28c-135.6288 0-245.5808-108.8896-245.5808-243.2s109.952-243.2 245.5808-243.2 245.5808 108.8896 245.5808 243.2-109.952 243.2-245.5808 243.2z" fill="#1F1F1F" p-id="2132"></path><path d="M919.3728 912.6912C810.368 806.1184 665.2416 745.472 510.8352 745.472c-153.1776 0-297.2544 59.6864-405.9904 164.7616a50.3552 50.3552 0 0 0-1.7152 70.4384 48.5632 48.5632 0 0 0 69.376 1.728c90.6752-87.6032 210.5984-137.28 338.3296-137.28 128.768 0 249.5616 50.4704 340.4416 139.3408a48.5632 48.5632 0 0 0 69.3888-1.3184 50.3552 50.3552 0 0 0-1.2928-70.4512z" fill="#455CED" p-id="2133"></path></svg>